HIERARCHY
ROOT Hips
{
	OFFSET 0.0000 0.0000 0.0000
	CHANNELS 6 Xposition Yposition Zposition Zrotation Xrotation Yrotation
	JOINT Spine1
	{
		OFFSET -0.0137 5.0038 -0.0537
		CHANNELS 3 Zrotation Xrotation Yrotation
		JOINT Spine2
		{
			OFFSET -0.0000 7.1253 -0.0298
			CHANNELS 3 Zrotation Xrotation Yrotation
			JOINT Chest
			{
				OFFSET -0.0000 7.5501 -0.8160
				CHANNELS 3 Zrotation Xrotation Yrotation
				JOINT Neck1
				{
					OFFSET -0.1817 26.3113 -0.5533
					CHANNELS 3 Zrotation Xrotation Yrotation
					JOINT Neck2
					{
						OFFSET -0.0000 7.7094 2.3026
						CHANNELS 3 Zrotation Xrotation Yrotation
						JOINT Head
						{
							OFFSET -0.0000 6.1289 1.9537
							CHANNELS 3 Zrotation Xrotation Yrotation
							JOINT Jaw
							{
								OFFSET 0.0026 0.4756 3.0949
								CHANNELS 3 Zrotation Xrotation Yrotation
								End Site
								{
									OFFSET 0.0 1.0 0.0
								}
							}
							JOINT LeftEye
							{
								OFFSET 3.2064 5.3802 7.5869
								CHANNELS 3 Zrotation Xrotation Yrotation
								End Site
								{
									OFFSET 0.0 1.0 0.0
								}
							}
							JOINT RightEye
							{
								OFFSET -3.2224 5.3619 7.5582
								CHANNELS 3 Zrotation Xrotation Yrotation
								End Site
								{
									OFFSET 0.0 1.0 0.0
								}
							}
						}
					}
				}
				JOINT LeftShoulder
				{
					OFFSET 1.6217 23.2372 5.1134
					CHANNELS 3 Zrotation Xrotation Yrotation
					JOINT LeftArm
					{
						OFFSET 14.9198 0.0000 -5.5023
						CHANNELS 3 Zrotation Xrotation Yrotation
						JOINT LeftForeArm
						{
							OFFSET 28.7393 0.0000 -0.0026
							CHANNELS 3 Zrotation Xrotation Yrotation
							JOINT LeftHand
							{
								OFFSET 27.0940 -0.0000 0.0026
								CHANNELS 3 Zrotation Xrotation Yrotation
								JOINT LeftHandThumbEnd
								{
									OFFSET 12.2686 -3.2202 4.8331
									CHANNELS 3 Zrotation Xrotation Yrotation
									End Site
									{
										OFFSET 0.0 1.0 0.0
									}
								}
								JOINT LeftHandMiddleEnd
								{
									OFFSET 19.0120 -0.3129 -0.0340
									CHANNELS 3 Zrotation Xrotation Yrotation
									End Site
									{
										OFFSET 0.0 1.0 0.0
									}
								}
							}
						}
					}
				}
				JOINT RightShoulder
				{
					OFFSET -1.3801 23.1803 5.2142
					CHANNELS 3 Zrotation Xrotation Yrotation
					JOINT RightArm
					{
						OFFSET -15.0372 0.0000 -5.5456
						CHANNELS 3 Zrotation Xrotation Yrotation
						JOINT RightForeArm
						{
							OFFSET -28.7366 0.0000 -0.0026
							CHANNELS 3 Zrotation Xrotation Yrotation
							JOINT RightHand
							{
								OFFSET -27.1336 -0.0000 0.0026
								CHANNELS 3 Zrotation Xrotation Yrotation
								JOINT RightHandThumbEnd
								{
									OFFSET -12.2642 -3.2115 4.8040
									CHANNELS 3 Zrotation Xrotation Yrotation
									End Site
									{
										OFFSET 0.0 1.0 0.0
									}
								}
								JOINT RightHandMiddleEnd
								{
									OFFSET -19.0006 -0.3066 -0.0316
									CHANNELS 3 Zrotation Xrotation Yrotation
									End Site
									{
										OFFSET 0.0 1.0 0.0
									}
								}
							}
						}
					}
				}
			}
		}
	}
	JOINT LeftLeg
	{
		OFFSET 10.0432 -8.4345 2.5957
		CHANNELS 3 Zrotation Xrotation Yrotation
		JOINT LeftShin
		{
			OFFSET -0.0000 -43.2218 -0.8029
			CHANNELS 3 Zrotation Xrotation Yrotation
			JOINT LeftFoot
			{
				OFFSET 0.0000 -42.1551 -3.4815
				CHANNELS 3 Zrotation Xrotation Yrotation
				JOINT LeftToeBase
				{
					OFFSET 0.0000 -5.0595 13.2315
					CHANNELS 3 Zrotation Xrotation Yrotation
					End Site
					{
						OFFSET 0.0 1.0 0.0
					}
				}
			}
		}
	}
	JOINT RightLeg
	{
		OFFSET -10.0473 -8.2953 2.6203
		CHANNELS 3 Zrotation Xrotation Yrotation
		JOINT RightShin
		{
			OFFSET 0.0000 -43.3622 -0.8056
			CHANNELS 3 Zrotation Xrotation Yrotation
			JOINT RightFoot
			{
				OFFSET 0.0000 -42.1174 -3.4784
				CHANNELS 3 Zrotation Xrotation Yrotation
				JOINT RightToeBase
				{
					OFFSET -0.0000 -5.0796 13.2842
					CHANNELS 3 Zrotation Xrotation Yrotation
					End Site
					{
						OFFSET 0.0 1.0 0.0
					}
				}
			}
		}
	}
}
MOTION
Frames: 8
Frame Time: 0.033333
-5.2002 99.4497 -1.4723 1.1728 3.2549 -0.2882 -0.4365 -2.1303 -0.2584 -0.6036 -5.4380 -0.0121 0.3179 8.5980 -2.1382 1.2261 -1.8702 2.2291 -0.1954 -3.5204 1.9968 0.2308 -10.1888 1.3678 -0.0066 0.0517 -0.0692 0.7408 -10.5138 -3.9376 -0.7528 -10.5859 3.8110 -17.6366 12.4513 -8.4942 -51.1243 14.3449 -31.2093 -0.2727 -0.1009 -30.0835 -6.8750 -5.0978 -0.3777 -15.7141 11.0326 15.8956 -60.9218 1.6498 2.4337 23.0133 10.5029 14.0954 51.2119 12.0037 12.3131 0.2038 -0.0203 32.3380 4.8200 4.5005 -0.2288 15.7187 7.0633 -16.4687 50.1153 -3.8314 -5.4959 3.4839 -4.1294 1.0669 0.0385 3.5262 -0.0305 -4.1286 -4.1398 -2.3231 1.6404 -0.1126 -1.9493 -4.4880 -0.9744 -21.8178 0.0223 1.9833 -0.1991 7.2169 -6.2298 -1.1601 -1.3983 -0.5699 0.9561
-5.2941 99.4621 -1.3875 1.1324 3.2557 -0.4206 -0.4213 -2.0580 -0.2614 -0.5964 -5.4257 0.0189 0.4127 8.6001 -2.1839 1.2094 -1.7835 2.2261 -0.1621 -3.5018 1.9650 0.1308 -10.3096 1.3755 -0.0067 0.0453 -0.0503 0.7388 -10.5150 -3.9190 -0.7505 -10.5829 3.8302 -17.4705 12.5043 -8.4917 -51.2825 13.9838 -30.9256 -0.3174 -0.1505 -30.1671 -6.9166 -5.2233 -0.3374 -15.7301 10.9703 15.7843 -60.8561 1.6391 2.2953 22.9870 10.6247 14.0427 51.2271 11.7009 12.2320 0.1270 -0.0049 32.2744 4.8241 4.3013 -0.2013 15.7275 7.0764 -16.4843 50.1880 -3.7729 -5.4918 3.5362 -4.4130 1.0241 0.0248 4.2547 -0.1066 -4.2233 -4.5576 -2.1388 1.6375 -0.1775 -1.9927 -4.4191 -1.0005 -21.5122 0.0192 2.1927 -0.2190 7.0915 -6.5266 -1.2962 -1.4009 -0.6479 0.9442
-5.3860 99.4606 -1.2911 1.0929 3.3509 -0.5111 -0.3976 -1.9841 -0.3053 -0.5885 -5.4146 0.0197 0.5385 8.5925 -2.2078 1.2149 -1.7225 2.1996 -0.1465 -3.5263 1.9668 -0.0010 -10.3795 1.3664 -0.0041 0.0411 -0.0396 0.7355 -10.5212 -3.9071 -0.7422 -10.5839 3.8374 -17.2046 12.5296 -8.4770 -51.5167 13.5808 -30.6938 -0.3791 -0.2034 -30.2659 -6.9016 -5.4784 -0.2925 -15.7266 10.9723 15.7668 -60.7554 1.6268 2.2849 22.8937 10.6811 13.9519 51.3021 11.3638 12.0228 0.0260 0.0061 32.2769 4.7820 3.9982 -0.2278 15.7326 7.1091 -16.4876 50.2023 -3.7491 -5.4839 3.5925 -4.9296 1.0003 0.0147 5.1975 -0.1543 -4.2407 -5.0056 -2.0628 1.6359 -0.2629 -2.0162 -4.3132 -1.2462 -21.1605 0.0165 2.6334 -0.2254 6.9570 -6.8721 -1.5689 -1.3979 -0.7075 0.9527
-5.4236 99.4507 -1.2768 1.0278 3.5342 -0.6137 -0.3816 -1.8544 -0.3650 -0.5754 -5.4044 0.0028 0.7203 8.5480 -2.2257 1.2387 -1.6698 2.1586 -0.1400 -3.5500 2.0257 -0.1367 -10.5917 1.4160 0.0001 0.0339 -0.0346 0.7322 -10.5351 -3.9030 -0.7306 -10.5951 3.8393 -16.8104 12.5791 -8.4432 -51.8450 13.1492 -30.7041 -0.4023 -0.2399 -30.3682 -6.7857 -5.6576 -0.2969 -15.6840 10.9616 15.7487 -60.6617 1.5946 2.2809 22.6466 10.7078 13.8629 51.5276 10.8851 11.6877 -0.0581 0.0066 32.3410 4.7281 3.7214 -0.2969 15.7190 7.1326 -16.4674 50.1480 -3.7443 -5.4689 3.6743 -5.7268 1.0632 0.0052 6.4237 -0.1873 -4.2249 -5.5469 -2.0964 1.6368 -0.3413 -2.0092 -4.1421 -1.8416 -20.7578 0.0094 3.5516 -0.2287 6.8014 -7.3668 -1.8809 -1.3957 -0.7718 0.9603
-5.3376 99.4168 -1.3386 1.0090 3.8045 -0.7589 -0.4403 -1.6423 -0.3918 -0.5757 -5.3564 -0.0445 0.9151 8.4399 -2.2563 1.3710 -1.6485 2.1075 -0.1235 -3.5608 2.1401 -0.2711 -11.1383 1.5300 0.0068 0.0326 -0.0255 0.7354 -10.5315 -3.8954 -0.7208 -10.5951 3.8459 -16.1360 12.7334 -8.4050 -52.3002 12.5934 -30.9925 -0.3804 -0.2163 -30.5431 -6.6017 -5.8855 -0.3748 -15.6052 10.9272 15.7263 -60.5352 1.5891 2.2828 22.1704 10.7371 13.7643 51.9755 10.2410 11.3594 -0.1004 0.0434 32.4346 4.6606 3.4111 -0.3525 15.6592 7.1406 -16.4371 50.0077 -3.7675 -5.4544 3.7148 -6.7993 1.2292 -0.0140 7.9383 -0.2210 -4.1735 -6.1624 -2.2009 1.6434 -0.3773 -1.9813 -3.9649 -3.0013 -20.2572 -0.0085 5.3344 -0.2407 6.6067 -8.1798 -2.2674 -1.3977 -0.7668 0.9644
-5.2437 99.3055 -1.4393 1.1692 4.1121 -1.0525 -0.6758 -1.3315 -0.4029 -0.6075 -5.2667 -0.0963 1.0679 8.3038 -2.2681 1.6380 -1.6736 2.0650 -0.0827 -3.5628 2.2715 -0.3536 -11.9708 1.6945 0.0119 0.0397 -0.0260 0.7394 -10.5311 -3.8989 -0.7146 -10.5973 3.8455 -15.1863 13.0171 -8.3863 -52.7930 11.9963 -31.4662 -0.3336 -0.1854 -30.8628 -6.3977 -6.2554 -0.5053 -15.5524 10.8956 15.7409 -60.4273 1.5936 2.3574 21.4596 10.8422 13.6700 52.5966 9.4849 11.1860 -0.0986 0.0759 32.6619 4.6168 3.4004 -0.4400 15.6074 7.1379 -16.4121 49.8451 -3.8186 -5.4478 3.5570 -8.0175 1.5491 -0.0405 9.6584 -0.2497 -4.1217 -6.8321 -2.2858 1.6540 -0.4057 -1.9621 -3.9544 -4.9609 -19.6815 -0.0302 8.4348 -0.2672 6.3853 -9.4684 -2.5871 -1.4028 -0.7358 0.9681
-5.2133 99.1120 -1.6188 1.6321 4.4228 -1.5875 -1.1682 -0.8978 -0.4176 -0.6623 -5.1145 -0.1213 1.0995 8.1040 -2.2107 2.0465 -1.6981 1.9742 -0.0163 -3.5777 2.4352 -0.3311 -13.0338 1.9210 0.0163 0.0568 -0.0178 0.7437 -10.5464 -3.8999 -0.7104 -10.6057 3.8612 -14.0117 13.3882 -8.4532 -53.2579 11.5117 -32.0292 -0.2711 -0.1430 -31.3517 -6.2426 -7.0302 -0.6222 -15.4921 10.8719 15.7680 -60.3315 1.6167 2.4368 20.5177 10.9796 13.4930 53.4389 8.6291 11.2352 -0.0658 0.1162 32.9326 4.6483 3.8581 -0.5034 15.5815 7.1461 -16.3895 49.6823 -3.8892 -5.4540 3.0775 -9.2726 2.1586 -0.0598 11.4828 -0.2884 -4.1534 -7.5027 -2.3188 1.6669 -0.4402 -1.9506 -4.2638 -7.9434 -19.1450 -0.0469 13.2482 -0.2950 6.1930 -11.1326 -2.5852 -1.4127 -0.8697 0.9896
-5.2683 98.8267 -1.7989 2.2728 4.7282 -2.4041 -1.8184 -0.3764 -0.4650 -0.6978 -4.9245 -0.0532 0.9984 7.9327 -2.1206 2.5101 -1.8124 1.8211 0.0464 -3.4907 2.6815 -0.2856 -14.2635 2.1189 0.0318 0.0837 0.0649 0.7668 -10.5521 -3.8346 -0.7031 -10.6099 3.9565 -12.9124 13.8008 -8.6222 -53.4304 11.1903 -32.5021 -0.2310 -0.1178 -31.7804 -6.1768 -8.0632 -0.7256 -15.5667 10.8321 15.7586 -60.3595 1.6581 2.4357 19.5044 11.1736 13.2717 54.3358 7.7062 11.4698 -0.0792 0.1902 33.2557 4.8090 4.4192 -0.4779 15.5311 7.1861 -16.3850 49.6105 -3.8593 -5.5046 2.4402 -10.5741 3.0789 -0.0875 13.4607 -0.3691 -4.2318 -8.3210 -2.1729 1.6673 -0.4035 -1.9572 -4.7927 -12.1158 -19.0084 -0.0129 20.0018 -0.2621 6.0341 -12.6035 -1.9758 -1.4437 -1.5050 0.9985
